<svg xmlns="http://www.w3.org/2000/svg" width="90" height="80.269" viewBox="0 0 90 80.269">
  <defs>
    <linearGradient id="a" x1="0%" y1="0%" x2="100%" y2="100%">
      <stop offset="0%" style="stop-color:#6B2EA3;stop-opacity:1" />
      <stop offset="100%" style="stop-color:#38135B;stop-opacity:1" />
    </linearGradient>
  </defs>
  <path fill="#B480E4" d="M16.19 12.384c2.539-.372 5.058-.489 7.62-.479 5.831.021 11.493.771 16.302 4.359a18.8 18.8 0 0 1 7.359 12.341c.383 2.687.241 5.992-.789 8.532.935 1.293 2.016 2.488 3.05 3.701 1.209 1.418 2.339 2.84 3.349 4.409.289.449.661.931.834 1.435.068.2.077.402.042.609-.065.38-.263.733-.468 1.055-.333.388-.735.689-1.169.957-.764.471-2.728 1.225-2.623 2.36.013.144.058.278.107.413l.026.053c.4.795 1.07 1.304.752 2.309-.206.654-.699 1.059-1.293 1.353.39.257.717.473.807.971.062.343-.008.734-.224 1.013-.68.877-2.102.729-1.958 2.227.177 1.844 2.622 2.813.899 4.951-.641.795-1.605 1.081-2.584 1.18-2.281.228-6.765-.484-9.018-1.129-2.861 2.474-4.62 5.83-4.892 9.615a11.8 11.8 0 0 0 .185 3.204 188 188 0 0 1-3.839-1.514c-.693-.28-1.41-.537-2.084-.859a36 36 0 0 1-5.165-2.706c-2.197-1.325-4.437-3.17-6.254-4.98A38.43 38.43 0 0 1 3.678 40.301a38.45 38.45 0 0 1 11.319-27.204c.376-.375.622-.688 1.192-.711"/>
  <path fill="url(#a)" transform="scale(1.21348 1.21304)" d="M12.36 10.795a19.8 19.8 0 0 1 3.919 3.713 27 27 0 0 1 1.198 1.621c.203.299.386.639.61.919a.3.3 0 0 0 .101.085c-.944-.023-1.894-.001-2.838-.001-.094-.295-.195-.558-.399-.797-.332-.389-.755-.514-1.246-.55-.522.079-.956.239-1.277.685-.279.387-.322.813-.257 1.274-.523.792-1.136 1.618-1.535 2.479-.496.208-.922.465-1.125.994-.152.396-.113.815.012 1.212.227.422.514.741.977.902a1.6 1.6 0 0 0 1.248-.085c.493-.254.716-.655.873-1.164h7.951c.237.717.529 1.422.724 2.151l-1.687.001c-.142-.486-.37-.911-.838-1.156a1.63 1.63 0 0 0-1.277-.082 1.66 1.66 0 0 0-.954.862 1.6 1.6 0 0 0-.034 1.246c.174.436.525.736.95.914.37.155.762.16 1.133.01.397-.161.752-.504.913-.902q.066-.168.114-.341l3.952-.007c.516 0 1.189-.066 1.683.019-.435.055-.897.025-1.336.024l-2.435-.005c.383 1.441.681 2.877.937 4.346-2.59-.91-5.03-2.425-7.796-1.095-1.092.525-1.896 1.208-2.297 2.38-.899 2.624.099 6.073 1.289 8.466 1.149 2.31 2.791 3.88 5.065 5.067-.266 3.216-.455 6.443-.679 9.663l-.233 3.346c-.069.993-.145 1.983-.119 2.979-1.81-1.093-3.656-2.613-5.154-4.105a31.7 31.7 0 0 1-9.461-22.642 31.7 31.7 0 0 1 9.328-22.426"/>
  <path fill="#38135B" d="M16.64 15.827c.537.55 1.131 1.045 1.678 1.587-.583.558-1.099 1.185-1.687 1.733-.633.096-1.16.29-1.549.831-.338.47-.391.986-.312 1.546-.635.961-1.379 1.963-1.863 3.007-.602.252-1.118.564-1.365 1.206-.185.481-.138.989.014 1.47-1.522 3.41-2.742 7.189-3.006 10.934-.069.982-.025 1.974.032 2.956.354 6.124 2.455 11.939 4.416 17.692a36.4 36.4 0 0 1-5.41-25.798c.815-5.008 2.879-10.843 6.285-14.696.834-.944 1.748-1.734 2.768-2.468m4.048 38.17c.394.021.949.293 1.336.425-.177 2.855-.452 5.71-.685 8.561-1.396-1.241-2.643-2.623-3.813-4.076-.091-.153-.236-.305-.345-.448-.415-.547-.916-1.129-1.243-1.73l.015-.042c.466.324.84 1.458 1.336 1.776 1.101-.728 2.147-1.598 3.209-2.388.349-.259.754-.642 1.15-.815.123.012.136.04.226.12.086-.278.1-.628.08-.917-.424-.15-.848-.298-1.265-.466"/>
  <path fill="#38135B" d="M30.644 30.078c.997 1.302 2.044 2.677 2.844 4.113l-4.848 2.731c-.753.426-1.504.894-2.275 1.286-.249.078-.52.264-.729.419-1.054-1.577-2.3-3.046-4.255-3.444-1.048-.213-2.219-.049-3.113.558-.826.561-1.308 1.462-1.487 2.429-.496 2.685.819 6.096 2.342 8.283 1.732 2.489 4.454 4.721 7.423 5.517-1.067 5.005-1.49 10.046-1.546 15.158-.018 1.648-.077 3.342.217 4.97.195 1.08.558 2.112 1.155 3.037a13 13 0 0 0 .21.313 36 36 0 0 1-5.165-2.706c-.032-1.209.062-2.409.145-3.614l.283-4.059c.272-3.905.501-7.82.824-11.721-2.76-1.44-4.752-3.344-6.146-6.146-1.444-2.902-2.656-7.086-1.565-10.269.488-1.422 1.463-2.25 2.788-2.887 3.356-1.613 6.318.224 9.46 1.328a61 61 0 0 0-1.137-5.271l2.955.006c.532.001 1.094.038 1.621-.029"/>
  <path fill="#6B2EA3" d="M24.468 13.015c1.283.289 2.565.574 3.804 1.027 4.559 1.667 9.152 5.071 12.447 8.599l-.483.455c-2.777-2.942-6.204-5.638-9.852-7.421-1.15-.562-2.331-1.01-3.542-1.419 4.881 4.728 11.183 11.657 12.475 18.475l-13.406 6.731 2.291 6.856c.316.949.745 2.524 1.175 3.371.225.444.575.856.867 1.26l1.536 2.142 4.38 6.132c.763 1.068 1.562 2.124 2.288 3.216l3.71-9.795c-3.096-3.282-6.159-6.604-9.294-9.848-.544.28-1.096.398-1.693.201a1.9 1.9 0 0 1-1.095-.982 2 2 0 0 1-.09-1.513c.165-.483.523-.91.987-1.131.496-.237 1.067-.226 1.574-.031.136.052.268.111.394.185l4.096-3.173c.481-.372 1.259-1.077 1.762-1.322.511-.25 1.733-.373 2.35-.484 1.839-.332 3.692-.629 5.522-1.008l-.779 2.185c-1.359-.059-4.345-.25-5.525.147-.308.104-.559.302-.796.518-.365.332-2 1.986-2.069 2.325l-.035.057c-.202.025-3.295 2.503-3.728 2.838a4.5 4.5 0 0 1-.367.747l9.559 10.151c-.746 1.777-1.379 3.622-2.062 5.425-.771 2.033-1.601 4.061-2.279 6.127L28.499 50.375a91 91 0 0 1-1.461 1.031c.785-3.415-.547-6.571-1.613-9.745-.359-1.069-.292-2.026.212-3.033.209-.155.48-.341.729-.419.06 0 .107.001.164-.017.332-.108.675-.318.991-.471l2.07-1.003 5.899-2.861c1.02-.495 2.04-1.036 3.079-1.485-.271-1.068-.59-2.092-1.029-3.105-2.578-5.941-8.228-11.984-13.072-16.252"/>
  <path fill="#B480E4" d="M31.569 39.873a1.293 1.293 0 0 1 .535 2.532 1.3 1.3 0 0 1-1.241-.396 1.3 1.3 0 0 1-.269-1.274 1.3 1.3 0 0 1 .975-.863"/>
  <path fill="#38135B" d="M14.998 13.095c.376-.375.622-.688 1.192-.711-.153.046-.309.087-.461.138 3.967.465 7.407 2.279 10.487 4.758 1.307 1.052 2.557 2.218 3.642 3.5l-7.787.001a.4.4 0 0 1-.123-.103c-.273-.34-.495-.752-.741-1.114a33 33 0 0 0-1.454-1.966 24 24 0 0 0-4.756-4.504"/>
  <path fill="#6B2EA3" d="m18.613 21.43 2.409.007c.457.001.943.032 1.396-.031.213.619.646 1.207.946 1.794.484.948.904 1.936 1.319 2.916-3.121.045-6.251 0-9.373-.001-.128-.45-.315-.855-.678-1.166-.52-.444-1.079-.477-1.725-.419.484-1.044 1.228-2.046 1.863-3.007a2 2 0 0 0 .216.562c.268.464.698.793 1.22.921a1.96 1.96 0 0 0 1.486-.237c.511-.311.779-.77.922-1.339"/>
  <path fill="#0C0314" d="M37.5 38.709c.342-.129.677-.323 1.015-.47.618-.269 1.27-.487 1.919-.669.671-.188 3.885-.787 4.324-.54.262 1.013.594 2.055.772 3.083a45 45 0 0 1-6.32-.906c-.571-.123-1.201-.225-1.745-.442z"/>
  <path fill="#6B2EA3" d="M49.803 52.075a2.04 2.04 0 0 1-1.46-.351c-.633-.435-1.289-1.277-1.421-2.048a1.44 1.44 0 0 1 .242-1.106c.318-.429.862-.635 1.377-.7 1.017-.128 1.951.339 2.938.435.573.056 1.222-.184 1.748-.101a.6.6 0 0 1 .261.14c-.333.388-.735.689-1.169.957-.764.471-2.728 1.225-2.623 2.36.013.144.058.278.107.413"/>
  <path fill="#38135B" d="M24.965 26.786h2.942a98 98 0 0 1 2.205 2.61l-4.268-.001c-.237-.885-.591-1.74-.879-2.609m-2.547-5.379c.63.224 4.231 3.967 4.894 4.717q-1.314-.019-2.629-.007c-.415-.98-.835-1.968-1.319-2.916-.3-.587-.733-1.174-.946-1.794"/>
  <path fill="#6B2EA3" d="M44.758 37.031c.907.817 2.293 2.558 2.682 3.695-.635-.205-1.269-.429-1.91-.611-.178-1.028-.51-2.071-.772-3.083"/>
  <path fill="#FEFEFF" d="M35.065 14.736c1.413.104 3.378 1.541 4.511 2.383a17.36 17.36 0 0 1 6.784 11.416c.16 1.113.127 2.104-.566 3.027-.245.257-.525.476-.871.578-.445.132-.932.029-1.335-.186-2.043-1.091-1.312-4.231-1.445-6.146-.08-1.155-.345-2.286-.723-3.378a12.8 12.8 0 0 0-3.059-4.84c-.322-.32-.669-.669-1.042-.928-.771-.535-1.96-.951-2.254-1.927"/>
  <path fill="#38135B" d="m23.529 21.432 6.911-.003c2.005 2.449 3.489 5.099 4.802 7.966l-4.286.001c-2.278-2.851-4.71-5.524-7.428-7.965"/>
  <path fill="#FEFEFF" d="M37.167 39.175c.787.147 1.564.394 2.346.573a227 227 0 0 1 6.273 1.494c.914 1.079 1.596 2.605 1.643 4.031.018.55-.103 1.005-.485 1.416-.41.312-.81.477-1.33.486-2.952.052-4.372-3.183-5.881-5.181-.774-1.025-1.641-1.93-2.565-2.82"/>
  <path fill="#6B2EA3" d="M29.366 59.999c.37.393.697.826 1.078 1.209 1.674 1.685 3.65 2.839 5.883 3.616-1.625.22-3.227.305-4.863.124-1.14-.126-1.913-.444-2.635-1.345-.263 2.773.034 5.627.614 8.342.451 1.755 1.005 3.363 1.817 4.986-.898-.281-1.741-.709-2.636-1.003l-.129-.296c-1.342-3.125-1.619-6.771-.923-10.088.401-1.909 1.073-3.736 1.795-5.543"/>
  <path fill="#FEFEFF" d="M30.117 48.886c.324.129 2.065 1.666 2.502 2.028l6.967 5.763a257 257 0 0 0-.855 3.304c-.086.294-.158.593-.236.889-2.734-4.032-5.595-7.986-8.378-11.984m18.148-7.96c.068.005.136.018.203.028.325.234 3.581 4.117 3.881 4.568.204.308.445.768.507 1.135.019.111.028.137-.033.228l-.198.012c-1.15.062-2.475.023-3.377-.799-1.066-.972-.545-2.305-.654-3.554-.048-.55-.301-1.087-.328-1.62"/>
  <path fill="#38135B" d="m31.476 30.063 4.035-.002a45 45 0 0 1 .898 2.481l-.787.45-1.552.874c-.8-1.32-1.709-2.543-2.594-3.804M21.371 40.821c.239-.025.443-.015.661.097a.7.7 0 0 1 .356.421q.034.115.073.23c.289.031.61-.419.942-.377.07.009.111.021.158.075a.45.45 0 0 1 .103.329c-.024.611-.802 1.025-1.196 1.416-.386.383-.647.912-.633 1.464.008.318.113.625.272.898.682 1.171 1.66.781 2.461 1.527l.039.037c.109.18.227.382.205.601-.016.157-.093.333-.225.426-.141.099-.328.097-.49.057-.866-.211-1.937-1.817-2.392-2.584-.564-.952-1.442-2.609-1.127-3.716.129-.454.395-.688.793-.901"/>
  <path fill="#38135B" d="M20.547 36.79c.151-.011.31-.005.46.012.661.076 1.232.4 1.645.92.56.705.693 1.513.596 2.387-.378-.75-.705-1.529-1.477-1.959a2.24 2.24 0 0 0-1.716-.167 1.66 1.66 0 0 0-1.009.855c-.689 1.353-.223 3.149.229 4.5.407 1.09.98 2.102 1.399 3.181-1.126-1.71-2.328-3.676-2.577-5.749-.121-1.009-.038-2.255.62-3.083.464-.584 1.109-.82 1.83-.897"/>
  <path fill="#FEFEFF" d="M47.781 62.793c.107.02.204.052.267.15.09.139.067.296.02.447-.148.474-.567.917-1.002 1.143-.259.134-.626.193-.912.242-1.61.281-3.262.097-4.822-.35a60 60 0 0 1-.921-.35c1.719-.187 3.403-.26 5.107-.61.778-.16 1.487-.529 2.263-.671"/>
  <path fill="#6B2EA3" d="m45.009 58.299 2.798.038a1.84 1.84 0 0 0-.605.875c-.241.757.041 1.481.388 2.152l.25.417c-.661-.138-1.247-.402-1.747-.865-.776-.718-1.037-1.59-1.084-2.617M13.231 25.154a1.299 1.299 0 0 1 .326 2.577 1.3 1.3 0 0 1-1.213-.495 1.3 1.3 0 0 1-.165-1.3 1.3 1.3 0 0 1 1.051-.782m3.179-5.319a1.3 1.3 0 1 1 .546 2.54 1.3 1.3 0 0 1-.545-2.539m5.368 8.612a1.294 1.294 0 1 1 .17 2.58 1.294 1.294 0 0 1-.17-2.579m2.351 14.514c.043.011.039.002.064.038.323.452.358 2.027.324 2.591-.285-.08-.561-.176-.84-.276-.261-.13-.52-.31-.667-.568a.84.84 0 0 1-.073-.666c.165-.566.713-.859 1.192-1.119m22.883 12.678c.482-.051 1.4-.146 1.834.079.124.064.171.135.217.263-.031.082-.031.107-.101.167-.354.307-.993.214-1.424.169-.725-.042-1.436-.264-2.121-.49.506-.145 1.071-.153 1.594-.188"/>
  <path fill="#B480E4" d="M40.94 1.821a38 38 0 0 1 9.797.965 38.7 38.7 0 0 1 23.95 17.051c1.081-1.973 1.961-4.128 1.377-6.415-1.044-4.086-6.123-5.53-9.779-6.047a24 24 0 0 0-1.572-.187c-.528-.04-1.177.018-1.674-.154-.24-.083-.493-.268-.713-.4.758-.053 1.52-.026 2.279-.004 2.51.071 5.046.346 7.471 1.023 2.564.717 5.25 2.005 6.593 4.427.922 1.664.941 3.526.419 5.322-2.191 7.527-12.982 14.661-19.562 18.274a103 103 0 0 1-6.815 3.407c-.497-.57-.911-1.224-1.27-1.888 7.206-3.37 15.169-7.842 20.57-13.799-1.843-3.135-4.04-5.927-6.716-8.393A34.4 34.4 0 0 0 36 6.474a36 36 0 0 0-4.993 1.263c-.649.219-2.232.94-2.804 1.022-.6.086-1.729-.154-2.395-.215-1.716-.157-3.463-.321-5.186-.252 1.024-.791 2.22-1.433 3.36-2.037 5.314-2.818 10.966-4.202 16.958-4.433"/>
  <path fill="#FEFEFF" d="M76.572 11.716c.247.22.443.665.585.965.946 1.996.996 4.077.248 6.149-2.572 7.121-14.015 13.673-20.697 16.796-.088.043-.309.167-.399.148.694-.435 1.428-.816 2.141-1.22a108 108 0 0 0 2.94-1.74c5.329-3.269 12.501-8.437 14.979-14.299.996-2.355 1.174-4.404.202-6.799"/>
  <path fill="#6B2EA3" d="m75.062 60.19.058.042c-.183.536-.852 1.415-1.189 1.908a38.6 38.6 0 0 1-9.754 9.876c-7.966 5.615-18.399 8.2-28.045 6.54l-.114-.024c-.131-.351.371-3.53.467-4.114 2.503.461 5.151.555 7.689.387a34.35 34.35 0 0 0 21.175-9.035c1.279-1.173 2.417-2.453 3.557-3.756 2.071-.569 4.151-1.022 6.155-1.823"/>
  <path fill="#B480E4" d="M78.353 22.34c2.743 1.07 5.81 2.693 7.058 5.531.731 1.664.645 3.468-.019 5.14-2.523 6.357-11.948 11.341-17.977 13.911a91 91 0 0 1-11.473 3.991c.742-.923 1.339-1.731 1.718-2.869 1.484-.515 2.98-.98 4.454-1.525A67.4 67.4 0 0 0 72.9 41.43a39 39 0 0 0 2.162-1.393c.473-.33.929-.693 1.413-1.006.835-.451 3.309-2.767 3.829-3.584 1.473-1.783 2.678-3.937 2.441-6.331-.174-1.764-1.258-3.294-2.605-4.388-.437-.355-.918-.642-1.365-.98-.172-.458-.285-.938-.421-1.407"/>
  <path fill="#FEFEFF" d="m83.845 31.039.059.009c-.11 1.409-1.111 3.371-1.879 4.558-4.19 6.482-12.361 10.123-19.546 12.128-1.036.289-2.079.584-3.131.811l-.022-.009c.118-.094 3.057-1.03 3.471-1.187a59 59 0 0 0 7.942-3.602c4.613-2.55 9.054-5.855 11.884-10.383.439-.702.993-1.528 1.222-2.326"/>
  <path fill="#B480E4" d="M82.219 41.742c1.047.412 2.611 2.832 3.041 3.821.714 1.642.869 3.415.198 5.103-1.339 3.37-5.112 5.545-8.285 6.896-5.627 2.396-11.918 3.541-17.999 4.03a135 135 0 0 1-3.971.259c-.75.036-1.505.039-2.253.093-.503-.705-.868-1.384-.949-2.259 4.984-.117 10.015-.56 14.893-1.616a56 56 0 0 0 3.963-.999c.458-.135 1.179-.465 1.604-.535.837-.121 5.194-2.064 5.766-2.643 2.048-1.373 4.195-3.145 4.695-5.697a5.7 5.7 0 0 0-.28-3.23c-.142-.356-.359-.756-.395-1.141-.047-.521.228-1.624-.007-2.052q-.01-.017-.022-.032"/>
  <path fill="#FEFEFF" d="M84.478 47.339c.065.077.071.103.077.208.024.397-.066.825-.154 1.211-.385 1.688-1.266 3.146-2.428 4.411-4.365 4.752-12.631 6.478-18.815 7.166-2.451.273-4.899.396-7.361.499l-.01-.03c.064-.03.047-.031.104-.034 1.328-.073 2.669-.258 3.988-.428 6.559-.85 14.421-2.643 19.801-6.607 1.813-1.335 3.376-3.028 4.33-5.084.185-.397.403-.877.469-1.313"/>
  <path fill="#9962CC" d="M76.215 44.833c1.222-.855 2.478-1.618 3.64-2.565.225-.183.527-.393.694-.63.136.491.021 1.188-.023 1.697-.241 2.847-.795 5.563-1.575 8.31-.093.327-.781 1.961-.76 2.151.004.035.025.065.037.098-.572.579-4.929 2.522-5.766 2.643.368-.57.66-1.229.946-1.844 1.455-3.131 2.327-6.45 2.807-9.86m.844-20.642c.409.727.712 1.564 1.007 2.344a38.3 38.3 0 0 1 2.237 8.912c-.52.817-2.994 3.133-3.829 3.584-.105-.961-.132-1.927-.25-2.889a32.2 32.2 0 0 0-2.197-8.531c.377-.452.824-.864 1.226-1.295a28 28 0 0 0 1.805-2.124"/>
</svg>